<svg width="160" height="37" viewBox="0 0 160 37" fill="none" xmlns="http://www.w3.org/2000/svg">
<path d="M49.2476 9.15419V25.5322H46.3527V9.15419H49.2476ZM57.5826 25.7721C56.383 25.7721 55.3434 25.5082 54.4637 24.9804C53.5841 24.4526 52.9016 23.7142 52.4165 22.7652C51.9367 21.8162 51.6967 20.7073 51.6967 19.4384C51.6967 18.1696 51.9367 17.058 52.4165 16.1037C52.9016 15.1493 53.5841 14.4083 54.4637 13.8805C55.3434 13.3527 56.383 13.0888 57.5826 13.0888C58.7822 13.0888 59.8218 13.3527 60.7015 13.8805C61.5812 14.4083 62.2609 15.1493 62.7407 16.1037C63.2259 17.058 63.4685 18.1696 63.4685 19.4384C63.4685 20.7073 63.2259 21.8162 62.7407 22.7652C62.2609 23.7142 61.5812 24.4526 60.7015 24.9804C59.8218 25.5082 58.7822 25.7721 57.5826 25.7721ZM57.5986 23.453C58.249 23.453 58.7928 23.2744 59.23 22.9172C59.6672 22.5546 59.9924 22.0695 60.2057 21.4617C60.4242 20.8539 60.5335 20.1768 60.5335 19.4304C60.5335 18.6787 60.4242 17.999 60.2057 17.3912C59.9924 16.7781 59.6672 16.2903 59.23 15.9277C58.7928 15.5652 58.249 15.3839 57.5986 15.3839C56.9322 15.3839 56.3777 15.5652 55.9352 15.9277C55.498 16.2903 55.1702 16.7781 54.9516 17.3912C54.7383 17.999 54.6317 18.6787 54.6317 19.4304C54.6317 20.1768 54.7383 20.8539 54.9516 21.4617C55.1702 22.0695 55.498 22.5546 55.9352 22.9172C56.3777 23.2744 56.9322 23.453 57.5986 23.453ZM71.2676 30.3945C70.228 30.3945 69.335 30.2532 68.5886 29.9706C67.8422 29.6934 67.2424 29.3202 66.7893 28.851C66.3361 28.3819 66.0215 27.862 65.8456 27.2916L68.4527 26.6598C68.5699 26.8997 68.7405 27.137 68.9645 27.3716C69.1884 27.6115 69.4896 27.8087 69.8681 27.9633C70.252 28.1233 70.7345 28.2033 71.3156 28.2033C72.1366 28.2033 72.8164 28.0033 73.3549 27.6035C73.8933 27.2089 74.1626 26.5585 74.1626 25.6522V23.325H74.0186C73.8693 23.6236 73.6508 23.9301 73.3629 24.2447C73.0803 24.5592 72.7044 24.8232 72.2353 25.0364C71.7714 25.2497 71.1877 25.3563 70.4839 25.3563C69.5403 25.3563 68.6846 25.135 67.9168 24.6925C67.1545 24.2447 66.5467 23.5783 66.0935 22.6933C65.6457 21.8029 65.4218 20.6887 65.4218 19.3505C65.4218 18.0016 65.6457 16.8634 66.0935 15.9357C66.5467 15.0027 67.1571 14.2963 67.9248 13.8165C68.6926 13.3313 69.5483 13.0888 70.4919 13.0888C71.2116 13.0888 71.8034 13.2114 72.2673 13.4566C72.7364 13.6965 73.1096 13.9871 73.3869 14.3283C73.6641 14.6642 73.8747 14.9814 74.0186 15.28H74.1786V13.2487H77.0335V25.7322C77.0335 26.7824 76.783 27.6515 76.2818 28.3392C75.7807 29.027 75.0956 29.5414 74.2266 29.8826C73.3575 30.2239 72.3712 30.3945 71.2676 30.3945ZM71.2916 23.0851C71.9047 23.0851 72.4272 22.9358 72.859 22.6373C73.2909 22.3387 73.6188 21.9095 73.8427 21.3497C74.0666 20.79 74.1786 20.1182 74.1786 19.3345C74.1786 18.5614 74.0666 17.8843 73.8427 17.3032C73.6241 16.7221 73.2989 16.2716 72.867 15.9517C72.4405 15.6265 71.9154 15.4639 71.2916 15.4639C70.6465 15.4639 70.108 15.6318 69.6762 15.9677C69.2444 16.3036 68.9191 16.7648 68.7006 17.3512C68.482 17.9323 68.3727 18.5934 68.3727 19.3345C68.3727 20.0862 68.482 20.7446 68.7006 21.3098C68.9245 21.8696 69.2524 22.3067 69.6842 22.6213C70.1214 22.9305 70.6572 23.0851 71.2916 23.0851ZM85.3585 25.7721C84.1589 25.7721 83.1193 25.5082 82.2396 24.9804C81.36 24.4526 80.6775 23.7142 80.1924 22.7652C79.7126 21.8162 79.4726 20.7073 79.4726 19.4384C79.4726 18.1696 79.7126 17.058 80.1924 16.1037C80.6775 15.1493 81.36 14.4083 82.2396 13.8805C83.1193 13.3527 84.1589 13.0888 85.3585 13.0888C86.5581 13.0888 87.5977 13.3527 88.4774 13.8805C89.357 14.4083 90.0368 15.1493 90.5166 16.1037C91.0018 17.058 91.2444 18.1696 91.2444 19.4384C91.2444 20.7073 91.0018 21.8162 90.5166 22.7652C90.0368 23.7142 89.357 24.4526 88.4774 24.9804C87.5977 25.5082 86.5581 25.7721 85.3585 25.7721ZM85.3745 23.453C86.0249 23.453 86.5687 23.2744 87.0059 22.9172C87.4431 22.5546 87.7683 22.0695 87.9815 21.4617C88.2001 20.8539 88.3094 20.1768 88.3094 19.4304C88.3094 18.6787 88.2001 17.999 87.9815 17.3912C87.7683 16.7781 87.4431 16.2903 87.0059 15.9277C86.5687 15.5652 86.0249 15.3839 85.3745 15.3839C84.7081 15.3839 84.1536 15.5652 83.7111 15.9277C83.2739 16.2903 82.946 16.7781 82.7275 17.3912C82.5142 17.999 82.4076 18.6787 82.4076 19.4304C82.4076 20.1768 82.5142 20.8539 82.7275 21.4617C82.946 22.0695 83.2739 22.5546 83.7111 22.9172C84.1536 23.2744 84.7081 23.453 85.3745 23.453ZM96.5964 18.3348V25.5322H93.7015V13.2487H96.4685V15.3359H96.6124C96.895 14.6482 97.3455 14.1017 97.9639 13.6965C98.5877 13.2913 99.3581 13.0888 100.275 13.0888C101.123 13.0888 101.861 13.27 102.49 13.6326C103.125 13.9951 103.615 14.5202 103.962 15.208C104.314 15.8957 104.487 16.7301 104.482 17.7111V25.5322H101.587V18.1589C101.587 17.3379 101.373 16.6954 100.947 16.2316C100.526 15.7678 99.9419 15.5359 99.1955 15.5359C98.689 15.5359 98.2385 15.6478 97.844 15.8717C97.4548 16.0903 97.1482 16.4075 96.9243 16.8234C96.7057 17.2392 96.5964 17.7431 96.5964 18.3348ZM110.959 25.7801C110.181 25.7801 109.48 25.6415 108.856 25.3643C108.238 25.0817 107.747 24.6659 107.384 24.1167C107.027 23.5676 106.849 22.8905 106.849 22.0855C106.849 21.3924 106.977 20.8193 107.233 20.3661C107.488 19.9129 107.838 19.5504 108.28 19.2785C108.723 19.0066 109.221 18.8013 109.776 18.6627C110.335 18.5188 110.914 18.4148 111.511 18.3508C112.231 18.2762 112.815 18.2096 113.262 18.1509C113.71 18.0869 114.035 17.991 114.238 17.863C114.446 17.7297 114.55 17.5245 114.55 17.2472V17.1993C114.55 16.5968 114.371 16.1303 114.014 15.7998C113.657 15.4692 113.142 15.3039 112.471 15.3039C111.762 15.3039 111.199 15.4586 110.783 15.7678C110.373 16.077 110.095 16.4422 109.952 16.8634L107.249 16.4795C107.462 15.7331 107.814 15.1094 108.304 14.6082C108.795 14.1017 109.394 13.7232 110.103 13.4726C110.813 13.2167 111.596 13.0888 112.455 13.0888C113.046 13.0888 113.636 13.1581 114.222 13.2967C114.808 13.4353 115.344 13.6645 115.829 13.9844C116.315 14.299 116.704 14.7282 116.997 15.272C117.296 15.8158 117.445 16.4955 117.445 17.3112V25.5322H114.662V23.8448H114.566C114.39 24.186 114.142 24.5059 113.822 24.8045C113.508 25.0977 113.11 25.335 112.631 25.5162C112.156 25.6922 111.599 25.7801 110.959 25.7801ZM111.711 23.6529C112.292 23.6529 112.796 23.5383 113.222 23.309C113.649 23.0745 113.977 22.7652 114.206 22.3814C114.441 21.9975 114.558 21.579 114.558 21.1258V19.6784C114.467 19.753 114.313 19.8223 114.094 19.8863C113.881 19.9503 113.641 20.0062 113.374 20.0542C113.108 20.1022 112.844 20.1449 112.583 20.1822C112.321 20.2195 112.095 20.2515 111.903 20.2781C111.471 20.3368 111.084 20.4327 110.743 20.566C110.402 20.6993 110.133 20.8859 109.936 21.1258C109.738 21.3604 109.64 21.6643 109.64 22.0375C109.64 22.5706 109.834 22.9732 110.223 23.2451C110.613 23.517 111.108 23.6529 111.711 23.6529ZM120.356 25.5322V13.2487H123.123V15.3359H123.267C123.523 14.6322 123.946 14.0831 124.538 13.6885C125.13 13.2887 125.836 13.0888 126.657 13.0888C127.489 13.0888 128.19 13.2913 128.761 13.6965C129.337 14.0964 129.742 14.6429 129.976 15.3359H130.104C130.376 14.6535 130.835 14.1097 131.48 13.7045C132.13 13.294 132.901 13.0888 133.791 13.0888C134.921 13.0888 135.843 13.446 136.558 14.1604C137.272 14.8748 137.629 15.9171 137.629 17.2872V25.5322H134.727V17.7351C134.727 16.9727 134.524 16.4155 134.119 16.0637C133.714 15.7065 133.218 15.5279 132.631 15.5279C131.933 15.5279 131.386 15.7465 130.992 16.1836C130.603 16.6155 130.408 17.1779 130.408 17.871V25.5322H127.569V17.6151C127.569 16.9807 127.377 16.4742 126.993 16.0957C126.615 15.7171 126.119 15.5279 125.506 15.5279C125.09 15.5279 124.712 15.6345 124.37 15.8478C124.029 16.0557 123.757 16.3516 123.555 16.7354C123.352 17.114 123.251 17.5565 123.251 18.0629V25.5322H120.356ZM146.004 25.7721C144.773 25.7721 143.709 25.5162 142.814 25.0044C141.923 24.4873 141.238 23.7569 140.758 22.8132C140.279 21.8642 140.039 20.7473 140.039 19.4624C140.039 18.1989 140.279 17.09 140.758 16.1356C141.243 15.176 141.921 14.4296 142.79 13.8965C143.659 13.358 144.68 13.0888 145.852 13.0888C146.61 13.0888 147.324 13.2114 147.996 13.4566C148.673 13.6965 149.27 14.0697 149.787 14.5762C150.31 15.0827 150.72 15.7278 151.019 16.5115C151.317 17.2899 151.466 18.2176 151.466 19.2945V20.1822H141.398V18.2309H148.691C148.686 17.6764 148.566 17.1833 148.332 16.7514C148.097 16.3142 147.769 15.9704 147.348 15.7198C146.932 15.4692 146.447 15.3439 145.892 15.3439C145.301 15.3439 144.781 15.4879 144.333 15.7758C143.885 16.0583 143.536 16.4315 143.285 16.8954C143.04 17.3539 142.915 17.8577 142.91 18.4068V20.1102C142.91 20.8246 143.04 21.4377 143.301 21.9495C143.563 22.456 143.928 22.8452 144.397 23.1171C144.866 23.3837 145.415 23.517 146.044 23.517C146.466 23.517 146.847 23.4583 147.188 23.341C147.529 23.2184 147.825 23.0398 148.076 22.8052C148.326 22.5706 148.516 22.2801 148.643 21.9335L151.346 22.2374C151.176 22.9518 150.851 23.5756 150.371 24.1087C149.896 24.6366 149.289 25.0471 148.548 25.3403C147.806 25.6282 146.959 25.7721 146.004 25.7721ZM155.699 25.7082C155.214 25.7082 154.798 25.5376 154.451 25.1963C154.105 24.8551 153.934 24.4393 153.94 23.9488C153.934 23.469 154.105 23.0585 154.451 22.7173C154.798 22.376 155.214 22.2054 155.699 22.2054C156.168 22.2054 156.576 22.376 156.922 22.7173C157.274 23.0585 157.453 23.469 157.458 23.9488C157.453 24.274 157.368 24.5699 157.202 24.8365C157.042 25.103 156.829 25.3163 156.563 25.4762C156.301 25.6309 156.013 25.7082 155.699 25.7082Z" fill="#262626"/>
<rect x="0.134766" y="0.218018" width="36.5665" height="36.5665" rx="7.99891" fill="url(#paint0_linear_91_19837)"/>
<path fill-rule="evenodd" clip-rule="evenodd" d="M21.3123 14.17C20.4556 13.5976 19.4485 13.2921 18.4182 13.2921V8.08301C20.4787 8.08301 22.493 8.69403 24.2063 9.8388C25.9196 10.9836 27.2549 12.6107 28.0434 14.5143C28.8319 16.418 29.0383 18.5128 28.6363 20.5337C28.2343 22.5547 27.2421 24.411 25.785 25.868C24.328 27.3251 22.4716 28.3173 20.4507 28.7193C18.4298 29.1213 16.335 28.9149 14.4313 28.1264C12.5277 27.3379 10.9006 26.0026 9.75579 24.2893C8.61102 22.576 8 20.5618 8 18.5012H13.2091C13.2091 19.5315 13.5146 20.5386 14.087 21.3953C14.6594 22.2519 15.4729 22.9196 16.4248 23.3138C17.3766 23.7081 18.424 23.8113 19.4345 23.6102C20.4449 23.4093 21.3731 22.9131 22.1016 22.1847C22.8301 21.4561 23.3263 20.5279 23.5272 19.5175C23.7282 18.507 23.6251 17.4596 23.2308 16.5078C22.8365 15.556 22.1689 14.7424 21.3123 14.17Z" fill="white"/>
<path fill-rule="evenodd" clip-rule="evenodd" d="M13.2091 8.08301C13.2091 8.76708 13.0744 9.44445 12.8126 10.0765C12.5508 10.7085 12.1671 11.2827 11.6834 11.7664C11.1997 12.2501 10.6254 12.6338 9.99344 12.8956C9.36144 13.1574 8.68407 13.2921 8 13.2921L8 18.5012C9.36814 18.5012 10.7229 18.2318 11.9869 17.7082C13.2509 17.1846 14.3994 16.4172 15.3668 15.4498C16.3342 14.4824 17.1016 13.3339 17.6252 12.0699C18.1488 10.8059 18.4182 9.45115 18.4182 8.08301L13.2091 8.08301Z" fill="white"/>
<defs>
<linearGradient id="paint0_linear_91_19837" x1="18.418" y1="0.218018" x2="18.418" y2="36.7845" gradientUnits="userSpaceOnUse">
<stop stop-color="#757575"/>
<stop offset="1" stop-color="#2B2B2C"/>
</linearGradient>
</defs>
</svg>
