<svg width="37" height="38" viewBox="0 0 37 38" fill="none" xmlns="http://www.w3.org/2000/svg">
<g id="Group 38276">
<rect id="Rectangle 4307" y="0.717773" width="36.5665" height="36.5665" rx="7.99891" fill="url(#paint0_linear_261_21410)"/>
<g id="Group 38275">
<path id="Vector" fill-rule="evenodd" clip-rule="evenodd" d="M21.1775 14.67C20.3209 14.0976 19.3137 13.7921 18.2835 13.7921V8.58301C20.344 8.58301 22.3582 9.19403 24.0715 10.3388C25.7848 11.4836 27.1201 13.1107 27.9087 15.0143C28.6972 16.918 28.9035 19.0128 28.5015 21.0337C28.0995 23.0547 27.1073 24.911 25.6502 26.368C24.1933 27.8251 22.3369 28.8173 20.316 29.2193C18.295 29.6213 16.2002 29.4149 14.2966 28.6264C12.3929 27.8379 10.7658 26.5026 9.62102 24.7893C8.47625 23.076 7.86523 21.0618 7.86523 19.0012H13.0743C13.0743 20.0315 13.3799 21.0386 13.9522 21.8953C14.5246 22.7519 15.3382 23.4196 16.29 23.8138C17.2418 24.2081 18.2892 24.3113 19.2997 24.1102C20.3102 23.9093 21.2383 23.4131 21.9669 22.6847C22.6954 21.9561 23.1915 21.0279 23.3925 20.0175C23.5935 19.007 23.4903 17.9596 23.0961 17.0078C22.7018 16.056 22.0341 15.2424 21.1775 14.67Z" fill="white"/>
<path id="Vector_2" fill-rule="evenodd" clip-rule="evenodd" d="M13.0743 8.58301C13.0743 9.26708 12.9396 9.94445 12.6778 10.5765C12.416 11.2085 12.0323 11.7827 11.5486 12.2664C11.0649 12.7501 10.4907 13.1338 9.85868 13.3956C9.22667 13.6574 8.5493 13.7921 7.86523 13.7921L7.86523 19.0012C9.23337 19.0012 10.5881 18.7318 11.8521 18.2082C13.1161 17.6846 14.2646 16.9172 15.232 15.9498C16.1994 14.9824 16.9669 13.8339 17.4904 12.5699C18.014 11.3059 18.2835 9.95115 18.2835 8.58301L13.0743 8.58301Z" fill="white"/>
</g>
</g>
<defs>
<linearGradient id="paint0_linear_261_21410" x1="18.2832" y1="0.717773" x2="18.2832" y2="37.2842" gradientUnits="userSpaceOnUse">
<stop stop-color="#757575"/>
<stop offset="1" stop-color="#2B2B2C"/>
</linearGradient>
</defs>
</svg>
