<svg width="28" height="28" viewBox="0 0 28 28" fill="none" xmlns="http://www.w3.org/2000/svg">
<path d="M14.0699 22.4778C12.7334 22.4778 11.5863 22.1396 10.6285 21.4633C9.67619 20.7815 8.943 19.7994 8.42896 18.517C7.92033 17.2292 7.66602 15.6789 7.66602 13.8663C7.67143 12.0536 7.92845 10.5115 8.43708 9.23988C8.95112 7.9629 9.6843 6.98892 10.6366 6.31796C11.5944 5.647 12.7388 5.31152 14.0699 5.31152C15.401 5.31152 16.5454 5.647 17.5031 6.31796C18.4609 6.98892 19.1941 7.9629 19.7027 9.23988C20.2167 10.5169 20.4738 12.059 20.4738 13.8663C20.4738 15.6843 20.2167 17.2373 19.7027 18.5251C19.1941 19.8075 18.4609 20.7869 17.5031 21.4633C16.5508 22.1396 15.4064 22.4778 14.0699 22.4778ZM14.0699 19.9374C15.1088 19.9374 15.9286 19.426 16.5292 18.4033C17.1352 17.3753 17.4382 15.8629 17.4382 13.8663C17.4382 12.546 17.3002 11.4367 17.0243 10.5385C16.7483 9.64029 16.3587 8.96392 15.8555 8.5094C15.3523 8.04947 14.7571 7.81951 14.0699 7.81951C13.0364 7.81951 12.2193 8.33355 11.6187 9.36163C11.0181 10.3843 10.7151 11.8858 10.7097 13.8663C10.7043 15.1919 10.8368 16.3066 11.1074 17.2102C11.3833 18.1139 11.7729 18.7956 12.2762 19.2556C12.7794 19.7101 13.3773 19.9374 14.0699 19.9374Z" fill="#4A4A4A"/>
</svg>
