<svg width="79" height="22" viewBox="0 0 79 22" fill="none" xmlns="http://www.w3.org/2000/svg">
<path d="M0.0343796 21.4253V0.786546H2.5336V19.2082H12.1274V21.4253H0.0343796ZM31.898 11.1059C31.898 13.2827 31.5049 15.1638 30.7189 16.7493C29.9329 18.3349 28.8546 19.5576 27.484 20.4175C26.1135 21.2775 24.5481 21.7075 22.7879 21.7075C21.0277 21.7075 19.4623 21.2775 18.0918 20.4175C16.7212 19.5576 15.6429 18.3349 14.8569 16.7493C14.0708 15.1638 13.6778 13.2827 13.6778 11.1059C13.6778 8.92918 14.0708 7.04804 14.8569 5.46251C15.6429 3.87698 16.7212 2.65425 18.0918 1.7943C19.4623 0.934349 21.0277 0.504375 22.7879 0.504375C24.5481 0.504375 26.1135 0.934349 27.484 1.7943C28.8546 2.65425 29.9329 3.87698 30.7189 5.46251C31.5049 7.04804 31.898 8.92918 31.898 11.1059ZM29.4794 11.1059C29.4794 9.31884 29.1804 7.81057 28.5825 6.58112C27.9912 5.35166 27.1884 4.42117 26.1739 3.78964C25.1662 3.15812 24.0375 2.84236 22.7879 2.84236C21.5383 2.84236 20.4062 3.15812 19.3918 3.78964C18.384 4.42117 17.5812 5.35166 16.9832 6.58112C16.392 7.81057 16.0964 9.31884 16.0964 11.1059C16.0964 12.893 16.392 14.4013 16.9832 15.6307C17.5812 16.8602 18.384 17.7907 19.3918 18.4222C20.4062 19.0537 21.5383 19.3695 22.7879 19.3695C24.0375 19.3695 25.1662 19.0537 26.1739 18.4222C27.1884 17.7907 27.9912 16.8602 28.5825 15.6307C29.1804 14.4013 29.4794 12.893 29.4794 11.1059ZM49.4994 7.23615C49.2776 6.5576 48.9854 5.94959 48.6226 5.41212C48.2665 4.86794 47.8399 4.40437 47.3428 4.02143C46.8523 3.63848 46.2947 3.34623 45.6699 3.14468C45.0451 2.94313 44.3598 2.84236 43.6141 2.84236C42.3913 2.84236 41.2795 3.15812 40.2784 3.78964C39.2774 4.42117 38.4813 5.35166 37.8901 6.58112C37.2988 7.81057 37.0032 9.31884 37.0032 11.1059C37.0032 12.893 37.3022 14.4013 37.9001 15.6307C38.4981 16.8602 39.3076 17.7907 40.3288 18.4222C41.35 19.0537 42.4988 19.3695 43.7753 19.3695C44.9578 19.3695 45.9991 19.1175 46.8994 18.6137C47.8063 18.1031 48.5118 17.3842 49.0156 16.4571C49.5262 15.5232 49.7815 14.4248 49.7815 13.1617L50.5474 13.323H44.3397V11.1059H52.2001V13.323C52.2001 15.0227 51.8373 16.5007 51.1118 17.7571C50.3929 19.0134 49.3986 19.9876 48.1288 20.6796C46.8658 21.3648 45.4146 21.7075 43.7753 21.7075C41.9479 21.7075 40.3423 21.2775 38.9583 20.4175C37.581 19.5576 36.5061 18.3349 35.7335 16.7493C34.9676 15.1638 34.5846 13.2827 34.5846 11.1059C34.5846 9.47336 34.803 8.0054 35.2397 6.70205C35.6831 5.39197 36.3079 4.27672 37.1141 3.35631C37.9203 2.4359 38.8743 1.73047 39.9761 1.24003C41.0779 0.749595 42.2906 0.504375 43.6141 0.504375C44.7025 0.504375 45.7169 0.668974 46.6575 0.998173C47.6048 1.32065 48.4479 1.78086 49.1869 2.37879C49.9327 2.97001 50.5541 3.67879 51.0513 4.50515C51.5484 5.32479 51.8911 6.23512 52.0792 7.23615H49.4994ZM73.185 11.1059C73.185 13.2827 72.792 15.1638 72.006 16.7493C71.2199 18.3349 70.1416 19.5576 68.7711 20.4175C67.4005 21.2775 65.8352 21.7075 64.075 21.7075C62.3148 21.7075 60.7494 21.2775 59.3788 20.4175C58.0083 19.5576 56.93 18.3349 56.144 16.7493C55.3579 15.1638 54.9649 13.2827 54.9649 11.1059C54.9649 8.92918 55.3579 7.04804 56.144 5.46251C56.93 3.87698 58.0083 2.65425 59.3788 1.7943C60.7494 0.934349 62.3148 0.504375 64.075 0.504375C65.8352 0.504375 67.4005 0.934349 68.7711 1.7943C70.1416 2.65425 71.2199 3.87698 72.006 5.46251C72.792 7.04804 73.185 8.92918 73.185 11.1059ZM70.7664 11.1059C70.7664 9.31884 70.4675 7.81057 69.8695 6.58112C69.2783 5.35166 68.4755 4.42117 67.461 3.78964C66.4533 3.15812 65.3246 2.84236 64.075 2.84236C62.8253 2.84236 61.6933 3.15812 60.6788 3.78964C59.6711 4.42117 58.8682 5.35166 58.2703 6.58112C57.6791 7.81057 57.3835 9.31884 57.3835 11.1059C57.3835 12.893 57.6791 14.4013 58.2703 15.6307C58.8682 16.8602 59.6711 17.7907 60.6788 18.4222C61.6933 19.0537 62.8253 19.3695 64.075 19.3695C65.3246 19.3695 66.4533 19.0537 67.461 18.4222C68.4755 17.7907 69.2783 16.8602 69.8695 15.6307C70.4675 14.4013 70.7664 12.893 70.7664 11.1059ZM76.7862 21.5865C76.2891 21.5865 75.8625 21.4085 75.5064 21.0524C75.1503 20.6964 74.9723 20.2697 74.9723 19.7726C74.9723 19.2754 75.1503 18.8488 75.5064 18.4927C75.8625 18.1367 76.2891 17.9586 76.7862 17.9586C77.2834 17.9586 77.71 18.1367 78.0661 18.4927C78.4222 18.8488 78.6002 19.2754 78.6002 19.7726C78.6002 20.1018 78.5162 20.4041 78.3482 20.6796C78.187 20.955 77.9687 21.1767 77.6932 21.3447C77.4245 21.5059 77.1222 21.5865 76.7862 21.5865Z" fill="#A9A9A9"/>
</svg>
