<svg width="29" height="29" viewBox="0 0 29 29" fill="none" xmlns="http://www.w3.org/2000/svg">
<path fill-rule="evenodd" clip-rule="evenodd" d="M1.2142 13.8014C0.914953 14.1007 0.914953 14.5859 1.2142 14.8851C1.51345 15.1843 1.99863 15.1843 2.29788 14.8851L3.02033 14.1626C9.50406 7.67892 20.0163 7.67892 26.5 14.1626L27.2225 14.8851C27.5217 15.1843 28.0069 15.1843 28.3061 14.8851C28.6054 14.5859 28.6054 14.1007 28.3061 13.8014L27.5837 13.079C20.5015 5.99674 9.01888 5.99674 1.93665 13.079L1.2142 13.8014ZM4.10483 17.7757C3.80558 17.4765 3.80558 16.9913 4.10483 16.692L4.82728 15.9696C10.3135 10.4834 19.2085 10.4834 24.6947 15.9696L25.4171 16.692C25.7164 16.9913 25.7164 17.4765 25.4171 17.7757C25.1179 18.075 24.6327 18.075 24.3335 17.7757L23.611 17.0533C18.7233 12.1655 10.7987 12.1655 5.91096 17.0533L5.1885 17.7757C4.88925 18.075 4.40408 18.075 4.10483 17.7757ZM6.9935 19.5817C6.69425 19.8809 6.69425 20.3661 6.9935 20.6654C7.29275 20.9646 7.77793 20.9646 8.07718 20.6654L8.79963 19.9429C12.0914 16.6512 17.4283 16.6512 20.7201 19.9429L21.4425 20.6654C21.7418 20.9646 22.227 20.9646 22.5262 20.6654C22.8255 20.3661 22.8255 19.8809 22.5262 19.5817L21.8038 18.8592C17.9135 14.969 11.6062 14.969 7.71595 18.8592L6.9935 19.5817ZM16.5673 25.542C17.5648 24.5445 17.5648 22.9272 16.5673 21.9297C15.5698 20.9322 13.9526 20.9322 12.9551 21.9297C11.9576 22.9272 11.9576 24.5445 12.9551 25.542C13.9526 26.5395 15.5698 26.5395 16.5673 25.542Z" fill="#A9A9A9"/>
</svg>
